<svg width="18" height="10" viewBox="0 0 18 10" fill="none" xmlns="http://www.w3.org/2000/svg">
<path d="M0.354009 9.77368C0.244009 9.66368 0.193009 9.54502 0.201009 9.41769C0.209009 9.29035 0.260009 9.17968 0.354009 9.08568L5.16701 4.21569C5.47368 3.89702 5.85268 3.73769 6.30401 3.73769C6.75534 3.73769 7.14068 3.89702 7.46001 4.21569L9.88001 6.64268C9.99601 6.75802 10.1373 6.81569 10.304 6.81569C10.4707 6.81569 10.618 6.75802 10.746 6.64268L16.331 1.12769H13.5C13.358 1.12769 13.239 1.08002 13.143 0.984685C13.047 0.889352 12.9993 0.770352 13 0.627686C13.0007 0.485019 13.0483 0.366019 13.143 0.270685C13.2377 0.175352 13.3567 0.127686 13.5 0.127686H17.192C17.4247 0.127686 17.6173 0.204352 17.77 0.357686C17.9233 0.511019 18 0.703685 18 0.935685V4.62769C18 4.77035 17.9523 4.88935 17.857 4.98468C17.7617 5.08002 17.6427 5.12769 17.5 5.12769C17.3573 5.12769 17.2383 5.08335 17.143 4.99469C17.0477 4.90602 17 4.79002 17 4.64669V1.83569L11.44 7.39569C11.1333 7.70168 10.7547 7.85469 10.304 7.85469C9.85268 7.85469 9.47367 7.70135 9.16701 7.39469L6.74701 4.97469C6.63101 4.85869 6.48334 4.80068 6.30401 4.80068C6.12468 4.80068 5.97701 4.85835 5.86101 4.97369L1.06101 9.77368C0.955009 9.88035 0.837342 9.93369 0.708009 9.93369C0.578676 9.93369 0.460676 9.88035 0.354009 9.77368Z" fill="black"/>
</svg>
