<svg width="24" height="18" viewBox="0 0 24 18" fill="none" xmlns="http://www.w3.org/2000/svg">
<path d="M23.0325 2.94814L18.179 0.300637C18.1241 0.270622 18.0626 0.25483 18 0.2547H15C14.9005 0.2547 14.8051 0.294209 14.7348 0.364535C14.6645 0.434861 14.625 0.530244 14.625 0.6297C14.625 1.32589 14.3484 1.99357 13.8561 2.48585C13.3639 2.97814 12.6962 3.2547 12 3.2547C11.3038 3.2547 10.6361 2.97814 10.1438 2.48585C9.65155 1.99357 9.37498 1.32589 9.37498 0.6297C9.37498 0.530244 9.33548 0.434861 9.26515 0.364535C9.19482 0.294209 9.09944 0.2547 8.99998 0.2547H5.99998C5.93764 0.255273 5.87641 0.271384 5.82186 0.301575L0.967485 2.94814C0.707979 3.08372 0.512873 3.31674 0.42499 3.59603C0.337107 3.87532 0.363629 4.17807 0.498735 4.43783L2.30623 7.88876C2.40551 8.07579 2.55411 8.23207 2.7359 8.34065C2.91769 8.44923 3.12574 8.50597 3.33748 8.5047H5.62498V16.3797C5.62498 16.6781 5.74351 16.9642 5.95449 17.1752C6.16547 17.3862 6.45162 17.5047 6.74998 17.5047H17.25C17.5484 17.5047 17.8345 17.3862 18.0455 17.1752C18.2565 16.9642 18.375 16.6781 18.375 16.3797V8.5047H20.6559C20.8677 8.50597 21.0757 8.44923 21.2575 8.34065C21.4393 8.23207 21.5879 8.07579 21.6872 7.88876L23.4947 4.43783C23.6303 4.17887 23.6578 3.87674 23.5712 3.59755C23.4845 3.31837 23.2908 3.08486 23.0325 2.94814ZM3.34405 7.7547C3.26801 7.75655 3.19291 7.73762 3.12683 7.69996C3.06075 7.66229 3.0062 7.60732 2.96905 7.54095L1.16623 4.09001C1.14446 4.0479 1.13132 4.00186 1.12761 3.9546C1.1239 3.90734 1.12968 3.85981 1.14462 3.81482C1.15956 3.76982 1.18336 3.72827 1.2146 3.69262C1.24584 3.65696 1.28391 3.62792 1.32655 3.6072L5.62498 1.26157V7.7547H3.34405ZM17.625 16.3797C17.625 16.4792 17.5855 16.5745 17.5152 16.6449C17.4448 16.7152 17.3494 16.7547 17.25 16.7547H6.74998C6.65053 16.7547 6.55515 16.7152 6.48482 16.6449C6.41449 16.5745 6.37498 16.4792 6.37498 16.3797V1.0047H8.64561C8.7373 1.83022 9.13018 2.59295 9.74907 3.1469C10.368 3.70086 11.1694 4.00715 12 4.00715C12.8306 4.00715 13.632 3.70086 14.2509 3.1469C14.8698 2.59295 15.2627 1.83022 15.3544 1.0047H17.625V16.3797ZM22.8337 4.09001L21.0272 7.54095C20.99 7.60732 20.9355 7.66229 20.8694 7.69996C20.8033 7.73762 20.7282 7.75655 20.6522 7.7547H18.375V1.26157L22.6734 3.60532C22.7163 3.62603 22.7546 3.65515 22.786 3.69095C22.8174 3.72675 22.8413 3.76849 22.8563 3.81371C22.8712 3.85892 22.8769 3.90668 22.8731 3.95415C22.8692 4.00161 22.8558 4.04782 22.8337 4.09001Z" fill="black"/>
</svg>
