<svg width="24" height="25" viewBox="0 0 24 25" fill="none" xmlns="http://www.w3.org/2000/svg">
<path d="M18.25 14.3797V11.3797H15.25V10.3797H18.25V7.3797H19.25V10.3797H22.25V11.3797H19.25V14.3797H18.25ZM9 12.2637C8.17533 12.2637 7.469 11.9704 6.881 11.3837C6.293 10.797 5.99933 10.09 6 9.2627C6.00067 8.43537 6.29433 7.72937 6.881 7.1447C7.46767 6.56004 8.174 6.2667 9 6.2647C9.826 6.2627 10.5323 6.55604 11.119 7.1447C11.7057 7.73337 11.9993 8.44004 12 9.2647C12.0007 10.0894 11.707 10.7954 11.119 11.3827C10.531 11.97 9.82467 12.264 9 12.2647M2 19.4947V17.8497C2 17.437 2.12 17.051 2.36 16.6917C2.60067 16.3317 2.924 16.0524 3.33 15.8537C4.274 15.401 5.21867 15.0617 6.164 14.8357C7.10867 14.609 8.054 14.4957 9 14.4957C9.946 14.4957 10.8917 14.609 11.837 14.8357C12.7823 15.0624 13.7263 15.4017 14.669 15.8537C15.0757 16.0524 15.399 16.3317 15.639 16.6917C15.8797 17.051 16 17.437 16 17.8497V19.4957L2 19.4947ZM3 18.4947H15V17.8487C15 17.6274 14.9283 17.419 14.785 17.2237C14.6423 17.029 14.4447 16.8644 14.192 16.7297C13.3693 16.331 12.521 16.0257 11.647 15.8137C10.773 15.6017 9.89067 15.4957 9 15.4957C8.10933 15.4957 7.22733 15.6017 6.354 15.8137C5.48067 16.0257 4.632 16.331 3.808 16.7297C3.55467 16.8644 3.357 17.029 3.215 17.2237C3.07167 17.419 3 17.6277 3 17.8497V18.4947ZM9 11.2647C9.55 11.2647 10.021 11.0687 10.413 10.6767C10.805 10.2847 11.0007 9.8137 11 9.2637C10.9993 8.7137 10.8037 8.24304 10.413 7.8517C10.0223 7.46037 9.55133 7.26437 9 7.2637C8.44867 7.26304 7.978 7.45904 7.588 7.8517C7.198 8.24437 7.002 8.71504 7 9.2637C6.998 9.81237 7.194 10.2834 7.588 10.6767C7.982 11.07 8.45267 11.2657 9 11.2637" fill="black"/>
</svg>
