<svg width="24" height="25" viewBox="0 0 24 25" fill="none" xmlns="http://www.w3.org/2000/svg">
<path d="M19.435 4.9447H4.565C3.90196 4.9447 3.26608 5.20809 2.79724 5.67694C2.32839 6.14578 2.065 6.78166 2.065 7.4447V18.3147C2.065 18.9777 2.32839 19.6136 2.79724 20.0825C3.26608 20.5513 3.90196 20.8147 4.565 20.8147H19.435C20.098 20.8147 20.7339 20.5513 21.2028 20.0825C21.6716 19.6136 21.935 18.9777 21.935 18.3147V7.4447C21.935 6.78166 21.6716 6.14578 21.2028 5.67694C20.7339 5.20809 20.098 4.9447 19.435 4.9447ZM20.935 14.8747H14.515C13.9846 14.8747 13.4759 14.664 13.1008 14.2889C12.7257 13.9138 12.515 13.4051 12.515 12.8747C12.515 12.3443 12.7257 11.8356 13.1008 11.4605C13.4759 11.0854 13.9846 10.8747 14.515 10.8747H20.935V14.8747ZM14.515 9.8747C13.7194 9.8747 12.9563 10.1908 12.3937 10.7534C11.8311 11.316 11.515 12.0791 11.515 12.8747C11.515 13.6704 11.8311 14.4334 12.3937 14.996C12.9563 15.5586 13.7194 15.8747 14.515 15.8747H20.935V18.3147C20.935 18.7125 20.777 19.0941 20.4957 19.3754C20.2144 19.6567 19.8328 19.8147 19.435 19.8147H4.565C4.16718 19.8147 3.78565 19.6567 3.50434 19.3754C3.22304 19.0941 3.065 18.7125 3.065 18.3147V7.4447C3.065 7.04688 3.22304 6.66535 3.50434 6.38404C3.78565 6.10274 4.16718 5.9447 4.565 5.9447H19.435C19.8328 5.9447 20.2144 6.10274 20.4957 6.38404C20.777 6.66535 20.935 7.04688 20.935 7.4447V9.8747H14.515Z" fill="black"/>
<path d="M14.519 13.8757C15.0713 13.8757 15.519 13.428 15.519 12.8757C15.519 12.3234 15.0713 11.8757 14.519 11.8757C13.9667 11.8757 13.519 12.3234 13.519 12.8757C13.519 13.428 13.9667 13.8757 14.519 13.8757Z" fill="black"/>
</svg>
